<?xml version="1.0" encoding="utf-8"?>
<!-- Generator: Adobe Illustrator 21.0.2, SVG Export Plug-In . SVG Version: 6.00 Build 0)  -->
<svg version="1.1" xmlns="http://www.w3.org/2000/svg" xmlns:xlink="http://www.w3.org/1999/xlink" x="0px" y="0px"
	 viewBox="0 0 2000 629" style="enable-background:new 0 0 2000 629;" xml:space="preserve">
<style type="text/css">
	.st0{display:none;}
	.st1{display:inline;}
	.st2{font-family:'Verdana';}
	.st3{font-size:135.911px;}
	.st4{fill:none;}
	.st5{fill:#ED1C24;}
</style>
<g id="TextBackup" class="st0">
	<text transform="matrix(1.0653 0 0 1 0 620.7891)" class="st1 st2 st3">solutions academy scherrer</text>
</g>
<g id="Layer_1">
</g>
<g id="Old_text" class="st0">
	<g class="st1">
		<path d="M74,598.2c0,6.2-3.1,11.3-9.3,15.3c-6.2,4-14.7,6-25.4,6c-6.1,0-11.7-0.6-16.7-1.8c-5.1-1.2-9.3-2.5-12.8-3.9v-12.9h0.7
			c4.4,2.7,9.2,4.9,14.6,6.5c5.3,1.6,10.5,2.4,15.4,2.4c6.1,0,10.8-0.8,14.3-2.4c3.4-1.6,5.1-4.2,5.1-7.7c0-2.7-0.9-4.7-2.8-6.1
			c-1.9-1.4-5.4-2.6-10.7-3.5c-2-0.4-4.5-0.8-7.7-1.3c-3.2-0.5-6-1-8.6-1.6c-7.2-1.6-12.3-3.9-15.3-7c-3-3.1-4.5-6.8-4.5-11.3
			c0-2.8,0.7-5.5,2.1-7.9c1.4-2.5,3.5-4.7,6.4-6.7c2.7-1.9,6.2-3.4,10.5-4.5c4.2-1.1,9-1.7,14.2-1.7c4.9,0,9.9,0.5,14.9,1.5
			c5,1,9.2,2.2,12.5,3.6v12.3h-0.7c-3.5-2.2-7.8-4-12.9-5.5c-5-1.5-10-2.2-14.8-2.2c-5,0-9.3,0.8-12.8,2.4c-3.5,1.6-5.2,4-5.2,7.2
			c0,2.8,1.1,4.9,3.2,6.3c2.1,1.4,5.4,2.6,10,3.5c2.5,0.5,5.4,1,8.6,1.5c3.2,0.5,5.8,0.9,7.9,1.3c6.4,1.2,11.4,3.3,14.8,6.3
			C72.3,589.3,74,593.2,74,598.2z"/>
		<path d="M163.8,583.8c0,11.1-3.4,19.9-10.3,26.3c-6.9,6.4-16.1,9.6-27.6,9.6c-11.6,0-20.8-3.2-27.7-9.6
			c-6.8-6.4-10.3-15.2-10.3-26.3s3.4-19.9,10.3-26.3c6.8-6.4,16.1-9.7,27.7-9.7c11.5,0,20.7,3.2,27.6,9.7
			C160.4,563.9,163.8,572.7,163.8,583.8z M149.5,583.8c0-8.8-2.1-15.4-6.2-19.7c-4.2-4.3-9.9-6.4-17.3-6.4c-7.5,0-13.3,2.1-17.5,6.4
			c-4.1,4.3-6.2,10.9-6.2,19.7c0,8.5,2.1,15,6.2,19.4c4.2,4.4,10,6.6,17.4,6.6c7.4,0,13.1-2.2,17.3-6.6
			C147.4,598.9,149.5,592.4,149.5,583.8z"/>
		<path d="M199.2,617.9h-13.8v-95h13.8V617.9z"/>
		<path d="M294.6,617.9h-13.8v-7.6c-4.7,3.1-9.1,5.4-13.4,7c-4.3,1.6-9,2.4-14.1,2.4c-8.6,0-15.3-2.2-20.1-6.6
			c-4.8-4.4-7.2-10.8-7.2-19.3v-44.2h13.8v38.8c0,3.5,0.2,6.4,0.6,8.9c0.4,2.5,1.2,4.6,2.5,6.3c1.3,1.8,3,3.1,5.1,3.9
			c2.1,0.8,5.2,1.2,9.2,1.2c3.6,0,7.5-0.8,11.7-2.3c4.2-1.5,8.2-3.5,11.9-5.9v-50.9h13.8V617.9z"/>
		<path d="M364.4,617.2c-2.6,0.6-5.4,1-8.5,1.4c-3.1,0.4-5.8,0.5-8.2,0.5c-8.4,0-14.8-1.9-19.1-5.6c-4.4-3.7-6.5-9.7-6.5-18v-36.3
			h-9.3v-9.6h9.3v-19.6h13.8v19.6h28.5v9.6h-28.5v31.1c0,3.6,0.1,6.4,0.3,8.4c0.2,2,0.9,3.9,2.1,5.6c1.1,1.6,2.6,2.8,4.4,3.6
			c1.9,0.8,4.8,1.1,8.6,1.1c2.3,0,4.6-0.3,7.1-0.8c2.4-0.5,4.2-1,5.3-1.4h0.7V617.2z"/>
		<path d="M396,538.3h-15.6v-11.9H396V538.3z M395.1,617.9h-13.8v-68.2h13.8V617.9z"/>
		<path d="M492.4,583.8c0,11.1-3.4,19.9-10.3,26.3c-6.9,6.4-16.1,9.6-27.6,9.6c-11.6,0-20.8-3.2-27.7-9.6
			c-6.8-6.4-10.3-15.2-10.3-26.3s3.4-19.9,10.3-26.3c6.8-6.4,16.1-9.7,27.7-9.7c11.5,0,20.7,3.2,27.6,9.7
			C489,563.9,492.4,572.7,492.4,583.8z M478.1,583.8c0-8.8-2.1-15.4-6.2-19.7c-4.2-4.3-9.9-6.4-17.3-6.4c-7.5,0-13.3,2.1-17.5,6.4
			c-4.1,4.3-6.2,10.9-6.2,19.7c0,8.5,2.1,15,6.2,19.4c4.2,4.4,10,6.6,17.4,6.6c7.4,0,13.1-2.2,17.3-6.6
			C476,598.9,478.1,592.4,478.1,583.8z"/>
		<path d="M582.5,617.9h-13.8V579c0-3.1-0.2-6.1-0.7-8.8c-0.4-2.7-1.2-4.9-2.4-6.4c-1.2-1.7-3-3-5.3-3.8c-2.3-0.8-5.3-1.3-9-1.3
			c-3.8,0-7.7,0.8-11.8,2.3c-4.1,1.5-8.1,3.5-11.8,5.9v50.9h-13.8v-68.2h13.8v7.6c4.3-3,8.8-5.3,13.4-7c4.6-1.7,9.3-2.5,14.2-2.5
			c8.9,0,15.6,2.2,20.3,6.7c4.7,4.4,7,10.8,7,19.2V617.9z"/>
		<path d="M725.8,617.9h-13.7v-7.3c-1.2,0.7-2.9,1.7-5,2.9c-2.1,1.2-4.1,2.2-6.1,3c-2.3,0.9-5,1.7-7.9,2.3c-3,0.6-6.5,0.9-10.5,0.9
			c-7.4,0-13.7-2-18.8-6.1c-5.1-4.1-7.7-9.3-7.7-15.6c0-5.2,1.3-9.3,4-12.5c2.7-3.2,6.5-5.7,11.4-7.5c5-1.8,11-3.1,18-3.7
			c7-0.7,14.5-1.1,22.6-1.5V571c0-2.6-0.6-4.8-1.7-6.5c-1.1-1.7-2.7-3.1-4.7-4c-2-0.9-4.3-1.6-7.1-1.9c-2.7-0.3-5.6-0.5-8.6-0.5
			c-3.6,0-7.7,0.4-12.1,1.2c-4.5,0.8-9.1,1.9-13.8,3.4h-0.7v-11.7c2.7-0.6,6.6-1.3,11.7-2c5.1-0.7,10.1-1.1,15.1-1.1
			c5.8,0,10.8,0.4,15.1,1.2c4.3,0.8,8,2.1,11.1,4.1c3.1,1.9,5.4,4.3,7.1,7.3c1.6,3,2.4,6.7,2.4,11V617.9z M712.1,601.1v-19
			c-4.2,0.2-9.2,0.5-14.9,0.9c-5.7,0.4-10.2,1-13.6,1.8c-4,0.9-7.2,2.4-9.6,4.4c-2.5,2-3.7,4.7-3.7,8.1c0,3.9,1.4,6.8,4.3,8.8
			c2.8,2,7.2,3,13,3c4.9,0,9.3-0.8,13.3-2.3C704.9,605.2,708.6,603.3,712.1,601.1z"/>
		<path d="M813.1,613.6c-4.6,1.8-9,3.3-13.1,4.3c-4.1,1-8.5,1.5-13.2,1.5c-5.9,0-11.4-0.7-16.3-2.2c-5-1.4-9.2-3.6-12.7-6.6
			c-3.6-2.9-6.3-6.6-8.3-11.1c-2-4.5-2.9-9.7-2.9-15.7c0-11.1,3.7-19.9,11.1-26.2c7.4-6.3,17.1-9.5,29.2-9.5c4.7,0,9.3,0.5,13.9,1.6
			c4.5,1.1,8.7,2.4,12.5,4v12.8h-0.7c-4.2-2.7-8.6-4.8-13-6.3c-4.5-1.5-8.9-2.2-13.1-2.2c-7.8,0-14,2.2-18.6,6.6
			c-4.5,4.4-6.8,10.8-6.8,19.3c0,8.2,2.2,14.5,6.7,19c4.4,4.4,10.7,6.6,18.7,6.6c2.8,0,5.6-0.3,8.5-0.9c2.9-0.6,5.5-1.4,7.8-2.4
			c2-0.9,3.9-1.8,5.7-2.7c1.8-1,3.2-1.8,4.2-2.5h0.7V613.6z"/>
		<path d="M894.7,617.9h-13.7v-7.3c-1.2,0.7-2.9,1.7-5,2.9c-2.1,1.2-4.1,2.2-6.1,3c-2.3,0.9-5,1.7-7.9,2.3c-3,0.6-6.5,0.9-10.5,0.9
			c-7.4,0-13.7-2-18.8-6.1c-5.1-4.1-7.7-9.3-7.7-15.6c0-5.2,1.3-9.3,4-12.5c2.7-3.2,6.5-5.7,11.4-7.5c5-1.8,11-3.1,18-3.7
			c7-0.7,14.5-1.1,22.6-1.5V571c0-2.6-0.6-4.8-1.7-6.5c-1.1-1.7-2.7-3.1-4.7-4c-2-0.9-4.3-1.6-7.1-1.9c-2.7-0.3-5.6-0.5-8.6-0.5
			c-3.6,0-7.7,0.4-12.1,1.2c-4.5,0.8-9.1,1.9-13.8,3.4h-0.7v-11.7c2.7-0.6,6.6-1.3,11.7-2c5.1-0.7,10.1-1.1,15.1-1.1
			c5.8,0,10.8,0.4,15.1,1.2c4.3,0.8,8,2.1,11.1,4.1c3.1,1.9,5.4,4.3,7.1,7.3c1.6,3,2.4,6.7,2.4,11V617.9z M880.9,601.1v-19
			c-4.2,0.2-9.2,0.5-14.9,0.9c-5.7,0.4-10.2,1-13.6,1.8c-4,0.9-7.2,2.4-9.6,4.4c-2.5,2-3.7,4.7-3.7,8.1c0,3.9,1.4,6.8,4.3,8.8
			c2.8,2,7.2,3,13,3c4.9,0,9.3-0.8,13.3-2.3C873.8,605.2,877.5,603.3,880.9,601.1z"/>
		<path d="M987.9,617.9H974v-7.1c-4,2.8-8.1,5.1-12.4,6.7c-4.3,1.6-9,2.4-14,2.4c-9.8,0-17.6-3.1-23.3-9.4c-5.8-6.3-8.6-15-8.6-26.1
			c0-5.8,1-10.9,3-15.4c2-4.5,4.7-8.4,8-11.5c3.3-3.1,7.2-5.5,11.7-7.1c4.4-1.6,9-2.4,13.8-2.4c4.3,0,8.1,0.4,11.5,1.1
			c3.3,0.8,6.8,1.9,10.5,3.5v-29.5h13.8V617.9z M974,601.1v-39.1c-3.7-1.4-7.1-2.3-10-2.9c-2.9-0.5-6.2-0.8-9.6-0.8
			c-7.7,0-13.8,2.2-18.1,6.7c-4.3,4.5-6.5,10.8-6.5,19c0,8.1,1.7,14.3,5,18.5c3.3,4.2,8.7,6.3,16,6.3c3.9,0,7.9-0.7,11.9-2.2
			C966.8,605.2,970.6,603.4,974,601.1z"/>
		<path d="M1083.8,585h-60.5c0,4.2,0.8,7.8,2.3,11c1.5,3.1,3.6,5.7,6.2,7.7c2.5,2,5.6,3.4,9.1,4.4c3.5,1,7.4,1.5,11.6,1.5
			c5.6,0,11.2-0.9,16.9-2.8c5.7-1.9,9.7-3.7,12.1-5.5h0.7v12.5c-4.7,1.6-9.4,3-14.3,4.1c-4.9,1.1-9.9,1.6-15.3,1.6
			c-13.6,0-24.3-3.1-31.9-9.2c-7.6-6.1-11.5-14.8-11.5-26.1c0-11.1,3.7-20,11-26.5c7.3-6.6,17-9.8,28.9-9.8
			c11.1,0,19.6,2.7,25.6,8.1c6,5.4,9,13,9,22.9V585z M1070.4,576.2c0-6-1.9-10.7-5.5-14c-3.6-3.3-9.1-4.9-16.4-4.9
			c-7.4,0-13.3,1.8-17.7,5.4c-4.4,3.6-6.9,8.1-7.5,13.5H1070.4z"/>
		<path d="M1224.6,617.9h-13.8V579c0-2.9-0.2-5.8-0.5-8.5c-0.3-2.7-1-4.9-2-6.5c-1.1-1.7-2.7-3.1-4.9-4c-2.1-0.9-5.1-1.3-9.1-1.3
			c-3.9,0-7.7,0.8-11.6,2.4c-3.9,1.6-7.7,3.7-11.6,6.1c0.1,0.9,0.3,2,0.4,3.3c0.1,1.2,0.1,2.5,0.1,3.7v43.6h-13.8V579
			c0-3-0.2-5.9-0.5-8.6c-0.3-2.7-1-4.9-2-6.5c-1.1-1.7-2.7-3.1-4.9-3.9c-2.1-0.9-5.1-1.3-9.1-1.3c-3.8,0-7.6,0.8-11.4,2.3
			c-3.8,1.5-7.6,3.5-11.4,5.9v50.9h-13.8v-68.2h13.8v7.6c4.3-3,8.6-5.3,12.9-7c4.3-1.7,8.9-2.5,13.7-2.5c5.6,0,10.3,1,14.2,2.9
			c3.9,2,6.8,4.7,8.7,8.1c5.6-3.9,10.7-6.7,15.3-8.5c4.6-1.7,9.5-2.6,14.8-2.6c9,0,15.7,2.3,20,6.8c4.3,4.5,6.4,10.9,6.4,19V617.9z"
			/>
		<path d="M1320.7,549.7l-47.9,93.3H1258l15.3-28.4l-32.7-64.9h15l25.2,50.5l25.4-50.5H1320.7z"/>
		<path d="M1450.4,598.2c0,6.2-3.1,11.3-9.3,15.3c-6.2,4-14.7,6-25.4,6c-6.1,0-11.7-0.6-16.7-1.8s-9.3-2.5-12.8-3.9v-12.9h0.7
			c4.4,2.7,9.2,4.9,14.6,6.5c5.3,1.6,10.5,2.4,15.4,2.4c6.1,0,10.8-0.8,14.3-2.4c3.4-1.6,5.1-4.2,5.1-7.7c0-2.7-0.9-4.7-2.8-6.1
			c-1.9-1.4-5.4-2.6-10.7-3.5c-2-0.4-4.5-0.8-7.7-1.3c-3.2-0.5-6-1-8.6-1.6c-7.2-1.6-12.3-3.9-15.3-7c-3-3.1-4.5-6.8-4.5-11.3
			c0-2.8,0.7-5.5,2.1-7.9c1.4-2.5,3.5-4.7,6.4-6.7c2.7-1.9,6.2-3.4,10.5-4.5c4.2-1.1,9-1.7,14.2-1.7c4.9,0,9.9,0.5,14.9,1.5
			c5,1,9.2,2.2,12.5,3.6v12.3h-0.7c-3.5-2.2-7.8-4-12.9-5.5c-5-1.5-10-2.2-14.8-2.2c-5,0-9.3,0.8-12.8,2.4c-3.5,1.6-5.2,4-5.2,7.2
			c0,2.8,1.1,4.9,3.2,6.3c2.1,1.4,5.4,2.6,10,3.5c2.5,0.5,5.4,1,8.6,1.5c3.2,0.5,5.8,0.9,7.9,1.3c6.4,1.2,11.4,3.3,14.8,6.3
			C1448.7,589.3,1450.4,593.2,1450.4,598.2z"/>
		<path d="M1530.9,613.6c-4.6,1.8-9,3.3-13.1,4.3c-4.1,1-8.5,1.5-13.2,1.5c-5.9,0-11.4-0.7-16.3-2.2c-5-1.4-9.2-3.6-12.7-6.6
			c-3.6-2.9-6.3-6.6-8.3-11.1c-2-4.5-2.9-9.7-2.9-15.7c0-11.1,3.7-19.9,11.1-26.2c7.4-6.3,17.1-9.5,29.2-9.5c4.7,0,9.3,0.5,13.9,1.6
			c4.5,1.1,8.7,2.4,12.5,4v12.8h-0.7c-4.2-2.7-8.6-4.8-13-6.3c-4.5-1.5-8.9-2.2-13.1-2.2c-7.8,0-14,2.2-18.6,6.6
			c-4.5,4.4-6.8,10.8-6.8,19.3c0,8.2,2.2,14.5,6.7,19c4.4,4.4,10.7,6.6,18.7,6.6c2.8,0,5.6-0.3,8.5-0.9c2.9-0.6,5.5-1.4,7.8-2.4
			c2-0.9,3.9-1.8,5.7-2.7c1.8-1,3.2-1.8,4.2-2.5h0.7V613.6z"/>
		<path d="M1617.3,617.9h-13.8V579c0-3.1-0.2-6.1-0.7-8.8s-1.2-4.9-2.4-6.4c-1.2-1.7-3-3-5.3-3.8c-2.3-0.8-5.3-1.3-9-1.3
			c-3.8,0-7.7,0.8-11.8,2.3c-4.1,1.5-8.1,3.5-11.8,5.9v50.9h-13.8v-95h13.8v34.4c4.3-3,8.8-5.3,13.4-7c4.6-1.7,9.3-2.5,14.2-2.5
			c8.9,0,15.6,2.2,20.3,6.7c4.7,4.4,7,10.8,7,19.2V617.9z"/>
		<path d="M1712.6,585h-60.5c0,4.2,0.8,7.8,2.3,11c1.5,3.1,3.6,5.7,6.2,7.7c2.5,2,5.6,3.4,9.1,4.4c3.5,1,7.4,1.5,11.6,1.5
			c5.6,0,11.2-0.9,16.9-2.8c5.7-1.9,9.7-3.7,12.1-5.5h0.7v12.5c-4.7,1.6-9.4,3-14.3,4.1s-9.9,1.6-15.3,1.6
			c-13.6,0-24.3-3.1-31.9-9.2c-7.6-6.1-11.5-14.8-11.5-26.1c0-11.1,3.7-20,11-26.5c7.3-6.6,17-9.8,28.9-9.8
			c11.1,0,19.6,2.7,25.6,8.1c6,5.4,9,13,9,22.9V585z M1699.2,576.2c0-6-1.9-10.7-5.5-14c-3.6-3.3-9.1-4.9-16.4-4.9
			c-7.4,0-13.3,1.8-17.7,5.4c-4.4,3.6-6.9,8.1-7.5,13.5H1699.2z"/>
		<path d="M1784.8,562.2h-0.7c-2.1-0.4-4.1-0.7-6-0.9c-1.9-0.2-4.2-0.3-6.9-0.3c-4.3,0-8.4,0.8-12.3,2.3c-4,1.6-7.8,3.6-11.5,6.1
			v48.4h-13.8v-68.2h13.8v10.1c5.5-3.7,10.3-6.3,14.5-7.8c4.2-1.5,8.5-2.3,12.8-2.3c2.4,0,4.1,0.1,5.2,0.2c1.1,0.1,2.7,0.3,4.9,0.6
			V562.2z"/>
		<path d="M1849.1,562.2h-0.7c-2.1-0.4-4.1-0.7-6-0.9c-1.9-0.2-4.2-0.3-6.9-0.3c-4.3,0-8.4,0.8-12.3,2.3c-4,1.6-7.8,3.6-11.5,6.1
			v48.4h-13.8v-68.2h13.8v10.1c5.5-3.7,10.3-6.3,14.5-7.8c4.2-1.5,8.5-2.3,12.8-2.3c2.4,0,4.1,0.1,5.2,0.2c1.1,0.1,2.7,0.3,4.9,0.6
			V562.2z"/>
		<path d="M1930.8,585h-60.5c0,4.2,0.8,7.8,2.3,11c1.5,3.1,3.6,5.7,6.2,7.7c2.5,2,5.6,3.4,9.1,4.4c3.5,1,7.4,1.5,11.6,1.5
			c5.6,0,11.2-0.9,16.9-2.8c5.7-1.9,9.7-3.7,12.1-5.5h0.7v12.5c-4.7,1.6-9.4,3-14.3,4.1s-9.9,1.6-15.3,1.6
			c-13.6,0-24.3-3.1-31.9-9.2c-7.6-6.1-11.5-14.8-11.5-26.1c0-11.1,3.7-20,11-26.5c7.3-6.6,17-9.8,28.9-9.8
			c11.1,0,19.6,2.7,25.6,8.1c6,5.4,9,13,9,22.9V585z M1917.4,576.2c0-6-1.9-10.7-5.5-14c-3.6-3.3-9.1-4.9-16.4-4.9
			c-7.4,0-13.3,1.8-17.7,5.4c-4.4,3.6-6.9,8.1-7.5,13.5H1917.4z"/>
		<path d="M2003,562.2h-0.7c-2.1-0.4-4.1-0.7-6-0.9c-1.9-0.2-4.2-0.3-6.9-0.3c-4.3,0-8.4,0.8-12.3,2.3c-4,1.6-7.8,3.6-11.5,6.1v48.4
			h-13.8v-68.2h13.8v10.1c5.5-3.7,10.3-6.3,14.5-7.8s8.5-2.3,12.8-2.3c2.4,0,4.1,0.1,5.2,0.2c1.1,0.1,2.7,0.3,4.9,0.6V562.2z"/>
	</g>
</g>
<g id="Layer_5">
	<path class="st4" d="M236.8,629.6c2,0.9,5,1.3,8.8,1.3c3.4,0,7.2-0.8,11.3-2.5c4.1-1.7,7.9-3.8,11.4-6.4v-1h-38.4
		c0.4,1.6,1.1,3.1,1.9,4.4C233.1,627.3,234.7,628.8,236.8,629.6z"/>
	<path class="st4" d="M988.2,631c3.8,0,7.6-0.8,11.5-2.4c3.9-1.6,7.5-3.6,10.8-6.1V621H971c0.5,1.1,1.1,2.2,1.7,3.1
		C976,628.7,981.1,631,988.2,631z"/>
	<path class="st4" d="M1010.4,580c-3.6-1.5-6.8-2.5-9.6-3.1c-2.8-0.6-5.9-0.9-9.3-0.9c-7.4,0-13.2,2.4-17.4,7.3
		c-4.1,4.9-6.2,11.8-6.2,20.7c0,7,1,12.6,3.1,17h39.4V580z"/>
	<path class="st4" d="M722.4,628c2.7,2.1,6.9,3.2,12.5,3.2c4.7,0,8.9-0.9,12.8-2.6c3.9-1.7,7.4-3.7,10.7-6.1V621h-40
		C719,624,720.3,626.3,722.4,628z"/>
	<path class="st4" d="M1237.6,589.4c-0.3-3-1-5.3-1.9-7.1c-1.1-1.9-2.6-3.3-4.7-4.3c-2-1-4.9-1.5-8.8-1.5c-3.7,0-7.4,0.9-11.2,2.6
		c-3.7,1.7-7.4,4-11.2,6.7c0.1,1,0.3,2.2,0.4,3.6c0.1,1.3,0.1,2.7,0.1,4V621h37.7v-22.4C1238.1,595.4,1237.9,592.3,1237.6,589.4z"/>
	<path class="st4" d="M1186.6,589.3c-0.3-2.9-1-5.3-1.9-7.1c-1.1-1.9-2.6-3.3-4.7-4.3c-2-1-4.9-1.4-8.8-1.4c-3.6,0-7.3,0.8-10.9,2.5
		c-3.7,1.7-7.3,3.8-10.9,6.4V621h37.7v-22.4C1187.1,595.3,1187,592.2,1186.6,589.3z"/>
	<path class="st4" d="M435.4,632.1c7.1,0,12.6-2.4,16.6-7.1c1-1.2,1.9-2.5,2.6-4h-38.6c0.7,1.4,1.6,2.7,2.6,3.9
		C422.7,629.7,428.2,632.1,435.4,632.1z"/>
	<path class="st4" d="M544.5,589c-0.4-3-1.2-5.3-2.3-7c-1.2-1.9-2.9-3.2-5.1-4.1c-2.2-0.9-5.1-1.4-8.6-1.4c-3.6,0-7.4,0.8-11.4,2.5
		c-4,1.7-7.8,3.8-11.4,6.4V621h39.4v-22.4C545.1,595.2,544.9,592,544.5,589z"/>
	<path class="st4" d="M920.9,601.9c-4.1,0.2-8.8,0.6-14.3,1c-5.5,0.4-9.8,1.1-13,1.9c-3.8,1-6.9,2.6-9.3,4.7
		c-2.4,2.1-3.5,5.1-3.5,8.9c0,0.9,0.1,1.8,0.2,2.6h40V601.9z"/>
	<path class="st4" d="M758.5,601.9c-4.1,0.2-8.8,0.6-14.3,1c-5.5,0.4-9.8,1.1-13,1.9c-3.8,1-6.9,2.6-9.3,4.7
		c-2.4,2.1-3.5,5.1-3.5,8.9c0,0.9,0.1,1.8,0.2,2.6h40V601.9z"/>
	<polygon class="st4" points="1305.7,621 1305.2,621 1305.4,621.6 	"/>
	<path class="st4" d="M884.8,628c2.7,2.1,6.9,3.2,12.5,3.2c4.7,0,8.9-0.9,12.8-2.6c3.9-1.7,7.4-3.7,10.7-6.1V621h-40
		C881.4,624,882.7,626.3,884.8,628z"/>
	<path class="st4" d="M458.1,603.8c0-9.6-2-16.7-6-21.4c-4-4.7-9.6-7-16.7-7c-7.2,0-12.8,2.3-16.8,7c-4,4.7-6,11.8-6,21.4
		c0,7,1.2,12.8,3.5,17.2h38.6C457,616.6,458.1,610.8,458.1,603.8z"/>
	<path class="st4" d="M1097.8,580.3c-3.5-3.6-8.7-5.4-15.8-5.4c-7.1,0-12.8,2-17,5.9c-4.2,3.9-6.6,8.8-7.2,14.7h45.2
		C1103,588.9,1101.2,583.8,1097.8,580.3z"/>
	<path class="st4" d="M1615.1,589c-0.4-3-1.2-5.3-2.3-7c-1.2-1.9-2.9-3.2-5.1-4.1c-2.2-0.9-5.1-1.4-8.6-1.4c-3.6,0-7.4,0.8-11.4,2.5
		c-4,1.7-7.8,3.8-11.4,6.4V621h39.4v-22.4C1615.7,595.2,1615.5,592,1615.1,589z"/>
	<path class="st4" d="M1912.3,580.3c-3.5-3.6-8.7-5.4-15.8-5.4c-7.1,0-12.8,2-17,5.9c-4.2,3.9-6.6,8.8-7.2,14.7h45.2
		C1917.5,588.9,1915.8,583.8,1912.3,580.3z"/>
	<path class="st4" d="M142.1,603.8c0-9.6-2-16.7-6-21.4c-4-4.7-9.6-7-16.7-7c-7.2,0-12.8,2.3-16.8,7c-4,4.7-6,11.8-6,21.4
		c0,7,1.2,12.8,3.5,17.2h38.6C141,616.6,142.1,610.8,142.1,603.8z"/>
	<path class="st4" d="M1702.5,580.3c-3.5-3.6-8.7-5.4-15.8-5.4c-7.1,0-12.8,2-17,5.9c-4.2,3.9-6.6,8.8-7.2,14.7h45.2
		C1707.7,588.9,1706,583.8,1702.5,580.3z"/>
	<path class="st4" d="M119.4,632.1c7.1,0,12.6-2.4,16.6-7.1c1-1.2,1.9-2.5,2.6-4h-38.6c0.7,1.4,1.6,2.7,2.6,3.9
		C106.7,629.7,112.2,632.1,119.4,632.1z"/>
	<path d="M64.5,606.4c-3.3-3.2-8.1-5.5-14.3-6.8c-2-0.4-4.6-0.9-7.6-1.5c-3-0.5-5.8-1.1-8.2-1.6c-4.4-1-7.6-2.2-9.6-3.8
		c-2-1.5-3-3.8-3-6.9c0-3.5,1.7-6,5-7.8c3.3-1.7,7.4-2.6,12.3-2.6c4.7,0,9.4,0.8,14.3,2.4c4.9,1.6,9,3.6,12.4,5.9h0.7v-13.3
		c-3.2-1.5-7.2-2.9-12.1-3.9c-4.8-1.1-9.6-1.6-14.3-1.6c-5,0-9.6,0.6-13.7,1.8c-4.1,1.2-7.4,2.9-10.1,4.9c-2.7,2.1-4.8,4.5-6.1,7.2
		s-2,5.6-2,8.6c0,4.9,1.4,9,4.3,12.3c2.9,3.3,7.8,5.9,14.7,7.6c2.5,0.6,5.3,1.2,8.3,1.7c3,0.5,5.5,1,7.4,1.4
		c5.1,1.1,8.5,2.3,10.3,3.8c1.8,1.5,2.7,3.7,2.7,6.6h13.5c0-0.5,0.1-1,0.1-1.6C69.5,614,67.8,609.7,64.5,606.4z"/>
	<path d="M145.9,575.1c-6.6-7-15.4-10.5-26.5-10.5c-11.2,0-20,3.5-26.6,10.5c-6.6,7-9.9,16.6-9.9,28.6c0,6.5,1,12.2,2.8,17.2h14.3
		c-2.3-4.5-3.5-10.2-3.5-17.2c0-9.6,2-16.7,6-21.4c4-4.7,9.6-7,16.8-7c7.1,0,12.7,2.3,16.7,7c4,4.7,6,11.8,6,21.4
		c0,7.1-1.1,12.8-3.4,17.2H153c1.9-5,2.9-10.8,2.9-17.2C155.8,591.7,152.5,582.1,145.9,575.1z"/>
	<rect x="176.5" y="537.5" width="13.3" height="83.5"/>
	<path d="M229.4,618.5c-0.4-2.7-0.6-5.9-0.6-9.7v-42.2h-13.3v48.1c0,2.2,0.1,4.3,0.4,6.2h14C229.7,620.2,229.5,619.4,229.4,618.5z"
		/>
	<rect x="268.3" y="566.7" width="13.3" height="54.3"/>
	<path d="M321.3,610.9v-33.8h27.4v-10.5h-27.4v-21.3H308v21.3h-9v10.5h9v39.4c0,1.6,0.1,3,0.2,4.4h13.5c0-0.3-0.1-0.6-0.1-0.9
		C321.4,617.9,321.3,614.8,321.3,610.9z"/>
	<rect x="364.9" y="566.7" width="13.3" height="54.3"/>
	<rect x="364.1" y="541.3" width="15" height="12.9"/>
	<path d="M461.9,575.1c-6.6-7-15.4-10.5-26.5-10.5c-11.2,0-20,3.5-26.6,10.5c-6.6,7-9.9,16.6-9.9,28.6c0,6.5,1,12.2,2.8,17.2h14.3
		c-2.3-4.5-3.5-10.2-3.5-17.2c0-9.6,2-16.7,6-21.4c4-4.7,9.6-7,16.8-7c7.1,0,12.7,2.3,16.7,7c4,4.7,6,11.8,6,21.4
		c0,7.1-1.1,12.8-3.4,17.2H469c1.9-5,2.9-10.8,2.9-17.2C471.8,591.7,468.5,582.1,461.9,575.1z"/>
	<path d="M551.7,571.8c-4.5-4.8-11-7.2-19.5-7.2c-4.7,0-9.2,0.9-13.6,2.7c-4.4,1.8-8.7,4.3-12.9,7.6v-8.2h-13.3V621h13.3v-35.6
		c3.6-2.6,7.4-4.8,11.4-6.4c4-1.7,7.8-2.5,11.4-2.5c3.5,0,6.4,0.5,8.6,1.4c2.2,0.9,3.9,2.3,5.1,4.1c1.1,1.7,1.9,4,2.3,7
		c0.4,3,0.6,6.2,0.6,9.6V621h13.3v-28.3C558.4,583.6,556.2,576.7,551.7,571.8z"/>
	<path d="M635.4,606.4c-3.3-3.2-8.1-5.5-14.3-6.8c-2-0.4-4.6-0.9-7.6-1.5c-3-0.5-5.8-1.1-8.2-1.6c-4.4-1-7.6-2.2-9.6-3.8
		c-2-1.5-3-3.8-3-6.9c0-3.5,1.7-6,5-7.8c3.3-1.7,7.4-2.6,12.3-2.6c4.7,0,9.4,0.8,14.3,2.4c4.9,1.6,9,3.6,12.4,5.9h0.7v-13.3
		c-3.2-1.5-7.2-2.9-12.1-3.9c-4.8-1.1-9.6-1.6-14.3-1.6c-5,0-9.6,0.6-13.7,1.8c-4.1,1.2-7.4,2.9-10.1,4.9c-2.7,2.1-4.8,4.5-6.1,7.2
		s-2,5.6-2,8.6c0,4.9,1.4,9,4.3,12.3c2.9,3.3,7.8,5.9,14.7,7.6c2.5,0.6,5.3,1.2,8.3,1.7c3,0.5,5.5,1,7.4,1.4
		c5.1,1.1,8.5,2.3,10.3,3.8c1.8,1.5,2.7,3.7,2.7,6.6h13.5c0-0.5,0.1-1,0.1-1.6C640.4,614,638.7,609.7,635.4,606.4z"/>
	<path d="M769.4,578.5c-1.6-3.2-3.8-5.9-6.8-7.9c-3-2.1-6.6-3.6-10.7-4.4c-4.1-0.9-9-1.3-14.5-1.3c-4.8,0-9.6,0.4-14.5,1.2
		c-4.9,0.8-8.6,1.5-11.2,2.2v12.7h0.7c4.6-1.6,9-2.9,13.3-3.7c4.3-0.9,8.2-1.3,11.7-1.3c2.9,0,5.6,0.2,8.3,0.5
		c2.6,0.4,4.9,1,6.8,2.1c2,1.1,3.5,2.5,4.6,4.4s1.6,4.2,1.6,7v1.9c-7.7,0.4-15,0.9-21.7,1.6c-6.7,0.7-12.5,2.1-17.3,4
		c-4.8,2-8.4,4.7-11,8.2c-2.6,3.5-3.9,8-3.9,13.6c0,0.6,0,1.1,0.1,1.7h13.9c-0.1-0.8-0.2-1.7-0.2-2.6c0-3.8,1.2-6.7,3.5-8.9
		c2.4-2.1,5.4-3.7,9.3-4.7c3.2-0.8,7.6-1.5,13-1.9c5.5-0.4,10.3-0.8,14.3-1V621h13.2v-30.5C771.7,585.7,770.9,581.7,769.4,578.5z"/>
	<path d="M812,582.9c4.4-4.8,10.3-7.1,17.9-7.1c4.1,0,8.3,0.8,12.6,2.4c4.3,1.6,8.5,3.9,12.5,6.8h0.7v-13.9c-3.6-1.7-7.6-3.2-12-4.4
		c-4.4-1.2-8.8-1.8-13.3-1.8c-11.6,0-21,3.5-28.1,10.4c-7.1,6.9-10.6,16.4-10.6,28.5c0,6.5,0.9,12.2,2.8,17.1c0,0,0,0.1,0.1,0.1
		h14.9c-2.6-4.5-3.9-10.2-3.9-17.2C805.4,594.6,807.6,587.6,812,582.9z"/>
	<path d="M931.8,578.5c-1.6-3.2-3.8-5.9-6.8-7.9c-3-2.1-6.6-3.6-10.7-4.4c-4.1-0.9-9-1.3-14.5-1.3c-4.8,0-9.6,0.4-14.5,1.2
		c-4.9,0.8-8.6,1.5-11.2,2.2v12.7h0.7c4.6-1.6,9-2.9,13.3-3.7c4.3-0.9,8.2-1.3,11.7-1.3c2.9,0,5.6,0.2,8.3,0.5
		c2.6,0.4,4.9,1,6.8,2.1c2,1.1,3.5,2.5,4.6,4.4s1.6,4.2,1.6,7v1.9c-7.7,0.4-15,0.9-21.7,1.6c-6.7,0.7-12.5,2.1-17.3,4
		c-4.8,2-8.4,4.7-11,8.2c-2.6,3.5-3.9,8-3.9,13.6c0,0.6,0,1.1,0.1,1.7h13.9c-0.1-0.8-0.2-1.7-0.2-2.6c0-3.8,1.2-6.7,3.5-8.9
		c2.4-2.1,5.4-3.7,9.3-4.7c3.2-0.8,7.6-1.5,13-1.9c5.5-0.4,10.3-0.8,14.3-1V621h13.2v-30.5C934.1,585.7,933.3,581.7,931.8,578.5z"/>
	<path d="M1010.4,537.5v32.1c-3.5-1.7-6.9-3-10.1-3.8c-3.2-0.8-6.9-1.2-11-1.2c-4.6,0-9,0.9-13.3,2.7c-4.3,1.8-8,4.3-11.2,7.7
		c-3.3,3.5-5.8,7.6-7.7,12.5c-1.9,4.9-2.9,10.5-2.9,16.8c0,6.3,0.8,11.9,2.3,16.7H971c-2-4.3-3.1-10-3.1-17c0-8.9,2.1-15.8,6.2-20.7
		c4.1-4.9,9.9-7.3,17.4-7.3c3.3,0,6.4,0.3,9.3,0.9c2.8,0.6,6,1.6,9.6,3.1v41h13.3v-83.5H1010.4z"/>
	<path d="M1057.8,605h58.2v-6.8c0-10.8-2.9-19-8.7-24.9c-5.8-5.8-14-8.8-24.6-8.8c-11.5,0-20.8,3.6-27.8,10.7
		c-7,7.1-10.6,16.7-10.6,28.9c0,6.4,1,12,3,16.8h14.9c-0.8-1.2-1.6-2.6-2.2-4.1C1058.5,613.5,1057.8,609.6,1057.8,605z M1065,580.8
		c4.2-3.9,9.9-5.9,17-5.9c7.1,0,12.3,1.8,15.8,5.4c3.5,3.6,5.2,8.6,5.3,15.2h-45.2C1058.4,589.6,1060.8,584.7,1065,580.8z"/>
	<path d="M1245.2,572c-4.1-4.9-10.5-7.4-19.2-7.4c-5,0-9.8,0.9-14.2,2.8c-4.4,1.9-9.3,4.9-14.7,9.2c-1.8-3.8-4.6-6.7-8.4-8.8
		c-3.7-2.1-8.3-3.2-13.7-3.2c-4.7,0-9.1,0.9-13.2,2.7c-4.1,1.8-8.3,4.3-12.4,7.6v-8.2h-13.3V621h13.3v-35.6
		c3.6-2.6,7.3-4.8,10.9-6.4c3.7-1.7,7.3-2.5,10.9-2.5c3.8,0,6.7,0.5,8.8,1.4c2,1,3.6,2.4,4.7,4.3c1,1.8,1.6,4.1,1.9,7.1
		c0.3,2.9,0.5,6,0.5,9.3V621h13.3v-27.7c0-1.3,0-2.7-0.1-4c-0.1-1.3-0.2-2.5-0.4-3.6c3.7-2.7,7.4-4.9,11.2-6.7
		c3.7-1.7,7.4-2.6,11.2-2.6c3.8,0,6.7,0.5,8.8,1.5c2,1,3.6,2.4,4.7,4.3c1,1.8,1.6,4.1,1.9,7.1c0.3,3,0.5,6,0.5,9.2V621h13.3v-28.3
		C1251.4,583.8,1249.3,576.9,1245.2,572z"/>
	<polygon points="1281.2,566.7 1266.8,566.7 1291,621 1305.2,621 	"/>
	<polygon points="1329.9,566.7 1305.7,621 1319.2,621 1343.8,566.7 	"/>
	<path d="M1463.5,606.4c-3.3-3.2-8.1-5.5-14.3-6.8c-2-0.4-4.6-0.9-7.6-1.5c-3-0.5-5.8-1.1-8.2-1.6c-4.4-1-7.6-2.2-9.6-3.8
		c-2-1.5-3-3.8-3-6.9c0-3.5,1.7-6,5-7.8c3.3-1.7,7.4-2.6,12.3-2.6c4.7,0,9.4,0.8,14.3,2.4c4.9,1.6,9,3.6,12.4,5.9h0.7v-13.3
		c-3.2-1.5-7.2-2.9-12.1-3.9c-4.8-1.1-9.6-1.6-14.3-1.6c-5,0-9.6,0.6-13.7,1.8c-4.1,1.2-7.4,2.9-10.1,4.9c-2.7,2.1-4.8,4.5-6.1,7.2
		c-1.3,2.7-2,5.6-2,8.6c0,4.9,1.4,9,4.3,12.3c2.9,3.3,7.8,5.9,14.7,7.6c2.5,0.6,5.3,1.2,8.3,1.7c3,0.5,5.5,1,7.4,1.4
		c5.1,1.1,8.5,2.3,10.3,3.8c1.8,1.5,2.7,3.7,2.7,6.6h13.5c0-0.5,0.1-1,0.1-1.6C1468.5,614,1466.9,609.7,1463.5,606.4z"/>
	<path d="M1502.2,582.9c4.4-4.8,10.3-7.1,17.8-7.1c4.1,0,8.3,0.8,12.6,2.4s8.5,3.9,12.5,6.8h0.7v-13.9c-3.6-1.7-7.6-3.2-12-4.4
		c-4.4-1.2-8.8-1.8-13.3-1.8c-11.6,0-21,3.5-28.1,10.4c-7.1,6.9-10.6,16.4-10.6,28.5c0,6.5,0.9,12.2,2.8,17.1c0,0,0,0.1,0.1,0.1
		h14.9c-2.6-4.5-3.9-10.2-3.9-17.2C1495.7,594.6,1497.9,587.6,1502.2,582.9z"/>
	<path d="M1622.3,571.8c-4.5-4.8-11-7.2-19.5-7.2c-4.7,0-9.2,0.9-13.6,2.7c-4.4,1.8-8.7,4.3-12.9,7.6v-37.4H1563V621h13.3v-35.6
		c3.6-2.6,7.4-4.8,11.4-6.4c4-1.7,7.8-2.5,11.4-2.5c3.5,0,6.4,0.5,8.6,1.4c2.2,0.9,3.9,2.3,5.1,4.1c1.1,1.7,1.9,4,2.3,7
		c0.4,3,0.6,6.2,0.6,9.6V621h13.3v-28.3C1629,583.6,1626.8,576.7,1622.3,571.8z"/>
	<path d="M1662.5,605h58.2v-6.8c0-10.8-2.9-19-8.7-24.9s-14-8.8-24.6-8.8c-11.5,0-20.8,3.6-27.8,10.7c-7,7.1-10.6,16.7-10.6,28.9
		c0,6.4,1,12,3,16.8h14.9c-0.8-1.2-1.6-2.6-2.2-4.1C1663.3,613.5,1662.5,609.6,1662.5,605z M1669.7,580.8c4.2-3.9,9.9-5.9,17-5.9
		c7.1,0,12.3,1.8,15.8,5.4c3.5,3.6,5.2,8.6,5.3,15.2h-45.2C1663.1,589.6,1665.5,584.7,1669.7,580.8z"/>
	<path d="M1765.2,581.6c3.8-1.7,7.8-2.6,11.9-2.6c2.5,0,4.7,0.1,6.6,0.3c1.9,0.2,3.8,0.5,5.8,1h0.7v-12.8c-2.1-0.3-3.6-0.5-4.7-0.6
		c-1-0.1-2.7-0.2-5-0.2c-4.2,0-8.3,0.8-12.3,2.5c-4,1.7-8.7,4.5-14,8.5v-10.9h-13.3V621h13.3v-32.8
		C1757.7,585.5,1761.4,583.3,1765.2,581.6z"/>
	<path d="M1827,581.6c3.8-1.7,7.8-2.6,11.9-2.6c2.5,0,4.7,0.1,6.6,0.3c1.9,0.2,3.8,0.5,5.8,1h0.7v-12.8c-2.1-0.3-3.6-0.5-4.7-0.6
		c-1-0.1-2.7-0.2-5-0.2c-4.2,0-8.3,0.8-12.3,2.5c-4,1.7-8.7,4.5-14,8.5v-10.9h-13.3V621h13.3v-32.8
		C1819.5,585.5,1823.1,583.3,1827,581.6z"/>
	<path d="M1872.3,605h58.2v-6.8c0-10.8-2.9-19-8.7-24.9s-14-8.8-24.6-8.8c-11.5,0-20.8,3.6-27.8,10.7c-7,7.1-10.6,16.7-10.6,28.9
		c0,6.4,1,12,3,16.8h14.9c-0.8-1.2-1.6-2.6-2.2-4.1C1873.1,613.5,1872.3,609.6,1872.3,605z M1879.5,580.8c4.2-3.9,9.9-5.9,17-5.9
		c7.1,0,12.3,1.8,15.8,5.4c3.5,3.6,5.2,8.6,5.3,15.2h-45.2C1872.9,589.6,1875.3,584.7,1879.5,580.8z"/>
	<path d="M1964,588.2c3.5-2.7,7.2-4.9,11-6.6s7.8-2.6,11.9-2.6c2.5,0,4.7,0.1,6.6,0.3c1.9,0.2,3.8,0.5,5.8,1h0.7v-12.8
		c-2.1-0.3-3.6-0.5-4.7-0.6c-1-0.1-2.7-0.2-5-0.2c-4.2,0-8.3,0.8-12.3,2.5c-4,1.7-8.7,4.5-14,8.5v-10.9h-13.3V621h13.3V588.2z"/>
</g>
<g id="Layer_3">
	<path class="st4" d="M789.6,279.7c-37.8,3.3-67.6,8-89.7,14.2c-26.3,7.5-47.5,19.2-63.7,35.1c-16.2,15.9-24.3,37.7-24.3,65.5
		c0,6.5,0.4,12.6,1.2,18.4H888V272.3C860.1,274,827.3,276.4,789.6,279.7z"/>
	<path d="M424,401.2c0-39.7-11.5-71.5-34.6-95.6c-23-23.7-55.8-40.5-98.3-50.2c-14-3.3-31.4-6.8-52.3-10.7
		c-20.9-3.9-39.8-7.8-56.7-11.7c-30.5-7.1-52.6-16.4-66.2-27.8C102,193.8,95,176.9,95,154.4c0-25.5,11.5-44.8,34.6-57.7
		s51.3-19.4,84.8-19.4c32.2,0,65,6,98.4,18s61.9,26.7,85.3,44h4.9v-98c-22.2-11.4-50-21-83.4-29s-66.4-12-99-12
		c-34.9,0-66.4,4.5-94.6,13.4c-28.2,8.9-51.4,21-69.7,36.3c-18.9,15.6-33,33.3-42.3,53.2C4.6,123.1,0,144.2,0,166.6
		c0,35.8,10,65.9,29.9,90.5c20,24.5,53.8,43.2,101.5,55.8c17.2,4.6,36.3,8.8,57.2,12.7c20.9,3.9,37.9,7.3,50.9,10.2
		c35,7.8,58.7,17.2,71,28.3c12.3,11.1,18.5,27.3,18.5,48.8c0,0,0,0.1,0,0.1h94.6C423.9,409.1,424,405.2,424,401.2z"/>
	<path d="M612,394.6c0-27.8,8.1-49.7,24.3-65.5c16.2-15.9,37.4-27.6,63.7-35.1c22-6.2,51.9-11,89.7-14.2c37.7-3.3,70.5-5.7,98.4-7.4
		V413h92V188.9c0-35.2-5.4-64.7-16.1-88.4c-10.8-23.8-26.4-43.2-46.9-58.2c-20.8-15.3-45.5-26.1-74-32.5
		c-28.5-6.3-61.9-9.5-100.3-9.5c-32.9,0-66.3,2.9-100.1,8.8S582.9,20.3,565,25.2v93.1h4.9c31.5-12.3,62-21.8,91.6-28.3
		s56.4-9.8,80.4-9.8c19.8,0,38.8,1.3,57,3.9s33.8,7.7,46.8,15.2c13.6,7.9,24.1,18.7,31.4,32.5c7.3,13.8,11,31.1,11,52.1v14.3
		c-53.2,2.6-103.1,6.5-149.5,11.7c-46.4,5.2-86.2,15.2-119.3,29.8c-32.8,14.7-58,34.8-75.7,60.4S517,359.4,517,400.8
		c0,4.1,0.1,8.2,0.4,12.2h95.9C612.4,407.2,612,401.1,612,394.6z"/>
	<rect x="1140.6" y="197.3" width="305" height="87"/>
	<path d="M1999.7,401.2c0-39.7-11.5-71.5-34.6-95.6c-23-23.7-55.8-40.5-98.3-50.2c-14-3.3-31.4-6.8-52.3-10.7
		c-20.9-3.9-39.8-7.8-56.7-11.7c-30.5-7.1-52.6-16.4-66.2-27.8c-14-11.4-20.9-28.3-20.9-50.7c0-25.5,11.5-44.8,34.6-57.7
		s51.3-19.4,84.8-19.4c32.2,0,65,6,98.4,18s61.9,26.7,85.3,44h4.9v-98c-22.2-11.4-50-21-83.4-29s-66.4-12-99-12
		c-34.9,0-66.4,4.5-94.6,13.4c-28.2,8.9-51.4,21-69.7,36.3c-18.9,15.6-33,33.3-42.3,53.2c-9.3,19.8-13.9,41-13.9,63.4
		c0,35.8,10,65.9,29.9,90.5c20,24.5,53.8,43.2,101.5,55.8c17.2,4.6,36.3,8.8,57.2,12.7c20.9,3.9,37.9,7.3,50.9,10.2
		c35,7.8,58.7,17.2,71,28.3c12.3,11.1,18.5,27.3,18.5,48.8c0,0,0,0.1,0,0.1h94.6C1999.5,409.1,1999.7,405.2,1999.7,401.2z"/>
</g>
<g id="Layer_4">
	<rect x="0" y="450" class="st5" width="2000" height="48"/>
</g>
</svg>
